<?xml version="1.0" encoding="UTF-8"?>
<svg width="1040px" height="876px" viewBox="0 0 1040 876" version="1.1" xmlns="http://www.w3.org/2000/svg" xmlns:xlink="http://www.w3.org/1999/xlink">
    <!-- Generator: Sketch 53.2 (72643) - https://sketchapp.com -->
    <title>Group 2</title>
    <desc>Created with Sketch.</desc>
    <defs>
        <polygon id="path-1" points="-3.16635607e-13 0.31390218 5.21209419 0.31390218 5.21209419 5.536035 -3.16635607e-13 5.536035"></polygon>
    </defs>
    <g id="Deconstuct_-Landing-Page" stroke="none" stroke-width="1" fill="none" fill-rule="evenodd">
        <g id="Group-2">
            <g id="Group-3-Copy" transform="translate(35.000000, 0.000000)" fill="#D5CDF0">
                <path d="M77.6944033,484.762621 C195.451952,346.503927 -126.013482,457.803128 58.5528499,248.149046 C156.712828,136.650461 259.276504,77.8924757 403.80272,16.5380098 C600.96765,-67.1654593 452.037736,199.989812 644.418954,84.413922 C857.844033,-43.7993703 912.089984,81.9003312 849.436771,213.451636 C807.145629,302.251735 755.512837,396.231355 912.089984,343.356338 C1077.33817,287.551038 1007.26573,505.191707 818.959609,669.89015 C630.655723,834.588594 213.156157,965.577589 292.098579,798.396919 C323.253061,732.420762 295.174461,689.821895 169.255542,715.432741 C6.91558685,748.452184 -41.3574303,624.540223 77.6944033,484.762621" id="Fill-1"></path>
            </g>
            <g id="Group-89-Copy" transform="translate(0.000000, 23.000000)">
                <g id="Group-88">
                    <path d="M481.857032,247.758142 C481.857032,281.021565 454.941274,307.98908 421.736001,307.98908 C388.530729,307.98908 361.61497,281.021565 361.61497,247.758142 C361.61497,214.492167 388.530729,187.524652 421.736001,187.524652 C454.941274,187.524652 481.857032,214.492167 481.857032,247.758142" id="Fill-1" fill="#106CFF"></path>
                    <path d="M481.857032,247.758142 C481.857032,281.021565 454.941274,307.98908 421.736001,307.98908 C388.530729,307.98908 361.61497,281.021565 361.61497,247.758142 C361.61497,214.492167 388.530729,187.524652 421.736001,187.524652 C454.941274,187.524652 481.857032,214.492167 481.857032,247.758142 Z" id="Stroke-3" stroke="#106CFF" stroke-width="0.5" stroke-linecap="round" stroke-linejoin="round"></path>
                    <path d="M827,489.997641 C827,530.315475 794.314419,563 753.995282,563 C713.680863,563 681,530.315475 681,489.997641 C681,449.684525 713.680863,417 753.995282,417 C794.314419,417 827,449.684525 827,489.997641" id="Fill-5" fill="#6856B5"></path>
                    <path d="M202,536.99916 C202,551.358936 190.35856,563 175.99832,563 C161.63976,563 150,551.358936 150,536.99916 C150,522.641064 161.63976,511 175.99832,511 C190.35856,511 202,522.641064 202,536.99916" id="Fill-5-Copy" fill="#ABA3C7"></path>
                    <path d="M106.692476,114.17439 C105.676066,115.192658 104.025355,115.192658 103.006398,114.17439 C101.989988,113.156121 101.989988,111.502393 103.006398,110.481573 C104.025355,109.460753 105.676066,109.460753 106.692476,110.481573 C107.711434,111.502393 107.711434,113.156121 106.692476,114.17439" id="Fill-9" fill="#FFFFFF"></path>
                    <path d="M127.755853,135.276017 C126.739443,136.294285 125.088732,136.294285 124.069775,135.276017 C123.050818,134.255197 123.050818,132.60402 124.069775,131.5832 C125.088732,130.56238 126.739443,130.56238 127.755853,131.5832 C128.77481,132.60402 128.77481,134.255197 127.755853,135.276017" id="Fill-11" fill="#FFFFFF"></path>
                    <path d="M148.818975,156.3779 C147.802565,157.396168 146.151854,157.396168 145.132897,156.3779 C144.11394,155.35708 144.11394,153.705903 145.132897,152.685083 C146.151854,151.664263 147.802565,151.664263 148.818975,152.685083 C149.837932,153.705903 149.837932,155.35708 148.818975,156.3779" id="Fill-13" fill="#FFFFFF"></path>
                    <path d="M169.882352,177.478506 C168.865942,178.499326 167.215231,178.499326 166.196274,177.478506 C165.177316,176.460238 165.177316,174.80651 166.196274,173.78569 C167.215231,172.767422 168.865942,172.767422 169.882352,173.78569 C170.898762,174.80651 170.898762,176.460238 169.882352,177.478506" id="Fill-15" fill="#FFFFFF"></path>
                    <path d="M190.945474,198.580134 C189.929064,199.600954 188.278353,199.600954 187.259396,198.580134 C186.240438,197.561866 186.240438,195.908137 187.259396,194.887317 C188.278353,193.869049 189.929064,193.869049 190.945474,194.887317 C191.961884,195.908137 191.961884,197.561866 190.945474,198.580134" id="Fill-17" fill="#FFFFFF"></path>
                    <path d="M212.008851,219.682016 C210.989893,220.700284 209.34173,220.700284 208.322773,219.682016 C207.303815,218.663748 207.303815,217.01002 208.322773,215.9892 C209.34173,214.96838 210.989893,214.96838 212.008851,215.9892 C213.025261,217.01002 213.025261,218.663748 212.008851,219.682016" id="Fill-19" fill="#FFFFFF"></path>
                    <path d="M86.2450592,134.660462 C85.2261019,135.67873 83.575391,135.67873 82.558981,134.660462 C81.5400237,133.642194 81.5400237,131.988466 82.558981,130.967646 C83.575391,129.946826 85.2261019,129.946826 86.2450592,130.967646 C87.2614692,131.988466 87.2614692,133.642194 86.2450592,134.660462" id="Fill-21" fill="#FFFFFF"></path>
                    <path d="M107.306908,155.762345 C106.290498,156.780613 104.639787,156.780613 103.620829,155.762345 C102.604419,154.741525 102.604419,153.090349 103.620829,152.069528 C104.639787,151.048708 106.290498,151.048708 107.306908,152.069528 C108.325865,153.090349 108.325865,154.741525 107.306908,155.762345" id="Fill-23" fill="#FFFFFF"></path>
                    <path d="M128.370284,176.863973 C127.353874,177.882241 125.703164,177.882241 124.684206,176.863973 C123.665249,175.843152 123.665249,174.189424 124.684206,173.171156 C125.703164,172.150336 127.353874,172.150336 128.370284,173.171156 C129.386694,174.189424 129.386694,175.843152 128.370284,176.863973" id="Fill-25" fill="#FFFFFF"></path>
                    <path d="M149.433406,197.964579 C148.416996,198.985399 146.766286,198.985399 145.747328,197.964579 C144.728371,196.946311 144.728371,195.292583 145.747328,194.271762 C146.766286,193.253494 148.416996,193.253494 149.433406,194.271762 C150.449816,195.292583 150.449816,196.946311 149.433406,197.964579" id="Fill-27" fill="#FFFFFF"></path>
                    <path d="M170.496783,219.066462 C169.480373,220.087282 167.829662,220.087282 166.810705,219.066462 C165.791748,218.048194 165.791748,216.394465 166.810705,215.373645 C167.829662,214.352825 169.480373,214.352825 170.496783,215.373645 C171.513193,216.394465 171.513193,218.048194 170.496783,219.066462" id="Fill-29" fill="#FFFFFF"></path>
                    <path d="M191.56016,240.168089 C190.54375,241.188909 188.893039,241.188909 187.874082,240.168089 C186.855124,239.149821 186.855124,237.496093 187.874082,236.475273 C188.893039,235.454453 190.54375,235.454453 191.56016,236.475273 C192.57657,237.496093 192.57657,239.149821 191.56016,240.168089" id="Fill-31" fill="#FFFFFF"></path>
                    <path d="M65.7961137,155.146791 C64.7771564,156.165059 63.1289929,156.165059 62.1100355,155.146791 C61.0910782,154.12597 61.0910782,152.474794 62.1100355,151.453974 C63.1289929,150.433154 64.7771564,150.433154 65.7961137,151.453974 C66.8125237,152.474794 66.8125237,154.12597 65.7961137,155.146791" id="Fill-33" fill="#FFFFFF"></path>
                    <path d="M86.8582168,176.248418 C85.8418069,177.266686 84.191096,177.266686 83.1721386,176.248418 C82.1557287,175.227598 82.1557287,173.576421 83.1721386,172.555601 C84.191096,171.534781 85.8418069,171.534781 86.8582168,172.555601 C87.8771742,173.576421 87.8771742,175.227598 86.8582168,176.248418" id="Fill-35" fill="#FFFFFF"></path>
                    <path d="M107.921339,197.350301 C106.904929,198.368569 105.254218,198.368569 104.235261,197.350301 C103.218851,196.329481 103.218851,194.675752 104.235261,193.657484 C105.254218,192.636664 106.904929,192.636664 107.921339,193.657484 C108.940296,194.675752 108.940296,196.329481 107.921339,197.350301" id="Fill-37" fill="#FFFFFF"></path>
                    <path d="M128.984716,218.450652 C127.968306,219.471472 126.317595,219.471472 125.298637,218.450652 C124.27968,217.432384 124.27968,215.778656 125.298637,214.757835 C126.317595,213.739567 127.968306,213.739567 128.984716,214.757835 C130.001126,215.778656 130.001126,217.432384 128.984716,218.450652" id="Fill-39" fill="#FFFFFF"></path>
                    <path d="M150.047838,239.552535 C149.031428,240.573355 147.380717,240.573355 146.361759,239.552535 C145.342802,238.534267 145.342802,236.880538 146.361759,235.859718 C147.380717,234.84145 149.031428,234.84145 150.047838,235.859718 C151.064248,236.880538 151.064248,238.534267 150.047838,239.552535" id="Fill-41" fill="#FFFFFF"></path>
                    <path d="M171.111214,260.654162 C170.092257,261.67243 168.444094,261.67243 167.425136,260.654162 C166.406179,259.635894 166.406179,257.982166 167.425136,256.961346 C168.444094,255.940525 170.092257,255.940525 171.111214,256.961346 C172.127624,257.982166 172.127624,259.635894 171.111214,260.654162" id="Fill-43" fill="#FFFFFF"></path>
                    <path d="M45.347423,175.632864 C44.3284656,176.651132 42.6777547,176.651132 41.6613448,175.632864 C40.6423874,174.612043 40.6423874,172.960867 41.6613448,171.940047 C42.6777547,170.919227 44.3284656,170.919227 45.347423,171.940047 C46.3638329,172.960867 46.3638329,174.612043 45.347423,175.632864" id="Fill-45" fill="#FFFFFF"></path>
                    <path d="M66.4092713,196.734746 C65.3928614,197.753014 63.7421505,197.753014 62.7231931,196.734746 C61.7067832,195.713926 61.7067832,194.06275 62.7231931,193.041929 C63.7421505,192.021109 65.3928614,192.021109 66.4092713,193.041929 C67.4282287,194.06275 67.4282287,195.713926 66.4092713,196.734746" id="Fill-47" fill="#FFFFFF"></path>
                    <path d="M87.4726481,217.836374 C86.4562382,218.854642 84.8055273,218.854642 83.7865699,217.836374 C82.77016,216.815554 82.77016,215.161825 83.7865699,214.143557 C84.8055273,213.122737 86.4562382,213.122737 87.4726481,214.143557 C88.4916055,215.161825 88.4916055,216.815554 87.4726481,217.836374" id="Fill-49" fill="#FFFFFF"></path>
                    <path d="M108.53577,238.93698 C107.51936,239.9578 105.868649,239.9578 104.849692,238.93698 C103.833282,237.918712 103.833282,236.264984 104.849692,235.244164 C105.868649,234.225896 107.51936,234.225896 108.53577,235.244164 C109.554727,236.264984 109.554727,237.918712 108.53577,238.93698" id="Fill-51" fill="#FFFFFF"></path>
                    <path d="M129.599147,260.038608 C128.582737,261.056876 126.932026,261.056876 125.913069,260.038608 C124.894111,259.02034 124.894111,257.366611 125.913069,256.345791 C126.932026,255.324971 128.582737,255.324971 129.599147,256.345791 C130.615557,257.366611 130.615557,259.02034 129.599147,260.038608" id="Fill-53" fill="#FFFFFF"></path>
                    <path d="M150.662524,281.14049 C149.646114,282.158758 147.995403,282.158758 146.976445,281.14049 C145.957488,280.122222 145.957488,278.468494 146.976445,277.447674 C147.995403,276.426854 149.646114,276.426854 150.662524,277.447674 C151.678934,278.468494 151.678934,280.122222 150.662524,281.14049" id="Fill-55" fill="#FFFFFF"></path>
                    <path d="M24.8984775,196.119192 C23.8795201,197.13746 22.2313566,197.13746 21.2123993,196.119192 C20.1934419,195.098372 20.1934419,193.447195 21.2123993,192.426375 C22.2313566,191.405555 23.8795201,191.405555 24.8984775,192.426375 C25.9148874,193.447195 25.9148874,195.098372 24.8984775,196.119192" id="Fill-57" fill="#FFFFFF"></path>
                    <path d="M45.9605806,217.220819 C44.9441706,218.239087 43.2934597,218.239087 42.2745024,217.220819 C41.2580924,216.199999 41.2580924,214.54627 42.2745024,213.528002 C43.2934597,212.507182 44.9441706,212.507182 45.9605806,213.528002 C46.9795379,214.54627 46.9795379,216.199999 45.9605806,217.220819" id="Fill-59" fill="#FFFFFF"></path>
                    <path d="M67.0237026,238.321426 C66.0072927,239.342246 64.3565818,239.342246 63.3376244,238.321426 C62.3212145,237.303158 62.3212145,235.649429 63.3376244,234.628609 C64.3565818,233.610341 66.0072927,233.610341 67.0237026,234.628609 C68.04266,235.649429 68.04266,237.303158 67.0237026,238.321426" id="Fill-61" fill="#FFFFFF"></path>
                    <path d="M88.0870794,259.423053 C87.0706694,260.443873 85.4199585,260.443873 84.4010012,259.423053 C83.3820438,258.404785 83.3820438,256.751057 84.4010012,255.730237 C85.4199585,254.711968 87.0706694,254.711968 88.0870794,255.730237 C89.1060367,256.751057 89.1060367,258.404785 88.0870794,259.423053" id="Fill-63" fill="#FFFFFF"></path>
                    <path d="M109.150456,280.524936 C108.134046,281.543204 106.483335,281.543204 105.464378,280.524936 C104.445421,279.506668 104.445421,277.852939 105.464378,276.832119 C106.483335,275.811299 108.134046,275.811299 109.150456,276.832119 C110.169414,277.852939 110.169414,279.506668 109.150456,280.524936" id="Fill-65" fill="#FFFFFF"></path>
                    <path d="M130.213578,301.626563 C129.197168,302.644831 127.546457,302.644831 126.5275,301.626563 C125.508543,300.608295 125.508543,298.954567 126.5275,297.933747 C127.546457,296.912927 129.197168,296.912927 130.213578,297.933747 C131.229988,298.954567 131.229988,300.608295 130.213578,301.626563" id="Fill-67" fill="#FFFFFF"></path>
                    <g id="Group-71" transform="translate(0.000000, 211.832931)">
                        <mask id="mask-2" fill="white">
                            <use xlink:href="#path-1"></use>
                        </mask>
                        <g id="Clip-70"></g>
                        <path d="M4.44978673,4.77233396 C3.43082938,5.79060201 1.78266588,5.79060201 0.763708531,4.77233396 C-0.255248815,3.75151386 -0.255248815,2.10033735 0.763708531,1.07951725 C1.78266588,0.0586971557 3.43082938,0.0586971557 4.44978673,1.07951725 C5.46619668,2.10033735 5.46619668,3.75151386 4.44978673,4.77233396" id="Fill-69" fill="#FFFFFF" mask="url(#mask-2)"></path>
                    </g>
                    <path d="M25.5129088,237.705871 C24.4939514,238.726691 22.8432405,238.726691 21.8268306,237.705871 C20.8078732,236.687603 20.8078732,235.033875 21.8268306,234.013055 C22.8432405,232.994786 24.4939514,232.994786 25.5129088,234.013055 C26.5293187,235.033875 26.5293187,236.687603 25.5129088,237.705871" id="Fill-72" fill="#FFFFFF"></path>
                    <path d="M46.5750118,258.807499 C45.5586019,259.828319 43.907891,259.828319 42.8889336,258.807499 C41.8725237,257.789231 41.8725237,256.135502 42.8889336,255.114682 C43.907891,254.096414 45.5586019,254.096414 46.5750118,255.114682 C47.5939692,256.135502 47.5939692,257.789231 46.5750118,258.807499" id="Fill-74" fill="#FFFFFF"></path>
                    <path d="M67.6383886,279.909381 C66.6219787,280.930201 64.9712678,280.930201 63.9523104,279.909381 C62.9333531,278.891113 62.9333531,277.237385 63.9523104,276.216565 C64.9712678,275.195745 66.6219787,275.195745 67.6383886,276.216565 C68.657346,277.237385 68.657346,278.891113 67.6383886,279.909381" id="Fill-76" fill="#FFFFFF"></path>
                    <path d="M88.7015107,301.011009 C87.6851007,302.031829 86.0343898,302.031829 85.0154325,301.011009 C83.9964751,299.992741 83.9964751,298.339012 85.0154325,297.318192 C86.0343898,296.297372 87.6851007,296.297372 88.7015107,297.318192 C89.7179206,298.339012 89.7179206,299.992741 88.7015107,301.011009" id="Fill-78" fill="#FFFFFF"></path>
                    <path d="M109.764887,322.112891 C108.748477,323.13116 107.097767,323.13116 106.078809,322.112891 C105.059852,321.094623 105.059852,319.440895 106.078809,318.420075 C107.097767,317.399255 108.748477,317.399255 109.764887,318.420075 C110.781297,319.440895 110.781297,321.094623 109.764887,322.112891" id="Fill-80" fill="#FFFFFF"></path>
                    <path d="M922,661.961905 L989.79378,661.961905 L989.79378,592 L922,592 L922,661.961905 Z" id="Stroke-82" stroke="#F9F8F2" stroke-width="0.5" stroke-linecap="round" stroke-linejoin="round" stroke-dasharray="3"></path>
                    <path d="M585.976896,17.7433845 L616.779976,0.636991741 L646.966588,18.8075895 L646.352666,54.0871321 L615.549585,71.1909728" id="Stroke-84" stroke="#F9F8F2" stroke-width="0.5" stroke-linecap="round" stroke-linejoin="round" stroke-dasharray="3"></path>
                    <path d="M585.976896,17.7433845 L616.166055,35.9139823 L615.549585,71.1909728" id="Stroke-85" stroke="#F9F8F2" stroke-width="0.5" stroke-linecap="round" stroke-linejoin="round" stroke-dasharray="3"></path>
                    <path d="M616.165036,35.9142375 L646.968116,18.8078447" id="Stroke-86" stroke="#F9F8F2" stroke-width="0.5" stroke-linecap="round" stroke-linejoin="round" stroke-dasharray="3"></path>
                    <path d="M615.550604,71.1919937 L585.361445,53.0188439 L585.977915,17.7444054" id="Stroke-87" stroke="#F9F8F2" stroke-width="0.5" stroke-linecap="round" stroke-linejoin="round" stroke-dasharray="3"></path>
                </g>
            </g>
        </g>
    </g>
</svg>