<?xml version="1.0" encoding="UTF-8"?>
<svg width="171px" height="166px" viewBox="0 0 171 166" version="1.1" xmlns="http://www.w3.org/2000/svg" xmlns:xlink="http://www.w3.org/1999/xlink">
    <!-- Generator: Sketch 53.2 (72643) - https://sketchapp.com -->
    <title>Group 41</title>
    <desc>Created with Sketch.</desc>
    <defs>
        <polygon id="path-1" points="0 0.13296576 24.403874 0.13296576 24.403874 28.1975837 0 28.1975837"></polygon>
        <polygon id="path-3" points="0.150185459 0.377912155 19.2287035 0.377912155 19.2287035 28.4412872 0.150185459 28.4412872"></polygon>
    </defs>
    <g id="Deconstuct_-Landing-Page" stroke="none" stroke-width="1" fill="none" fill-rule="evenodd">
        <g id="screen/index/web" transform="translate(-635.000000, -52.000000)">
            <g id="Group-41" transform="translate(635.000000, 52.000000)">
                <polygon id="Fill-1" fill="#D5CDF0" points="122 28.4391543 121.596923 111 38.362487 110.604196 37 27.8153323 48.6587021 21.9065394 57.4883903 17.4316152 80.0413814 6"></polygon>
                <g id="Group-40">
                    <path d="M70.0553725,15.1357591 C71.2543737,14.4289451 72.4992995,14.0779924 73.752293,13.8430012 C75.0065278,13.6239625 76.2706922,13.5570852 77.5261681,13.6307116 C78.7828853,13.703111 80.0296728,13.9184684 81.2479127,14.28476 C82.4630496,14.6657769 83.6570861,15.1627555 84.7605148,16.0100733 C83.4386345,16.4524456 82.1961912,16.6095154 80.967401,16.7150467 C79.7404727,16.8058526 78.5371273,16.8101475 77.3368848,16.7352939 C76.1378835,16.6635081 74.9426059,16.5156417 73.736778,16.2806506 C72.5284677,16.0290935 71.3139514,15.727225 70.0553725,15.1357591" id="Fill-2" fill="#2D234C"></path>
                    <path d="M138.332413,27.5934786 L137.91723,112.782358 C137.912266,113.826627 137.051492,114.66965 135.994608,114.664742 L123.215812,114.603386 C122.158928,114.599091 121.306222,113.747479 121.311187,112.70321 C121.316772,111.659555 122.178167,110.815918 123.233809,110.820827 L134.100534,110.872365 L134.497098,29.4065301 L125.544928,29.2009896 L123.597481,29.1574272 C122.556113,29.1334986 121.726369,28.2898621 121.72761,27.2609324 C121.72761,27.2498884 121.72761,27.2382309 121.731334,27.2228921 C121.755537,26.179237 122.628103,25.3515529 123.688089,25.3791628 L124.151058,25.3889797 L129.120831,25.4994194 L92.7709851,4.31217894 L86.196958,5.0527384 L80.164095,5.73132892 C79.110935,5.85097192 78.1657596,5.10182271 78.0478454,4.0643032 C77.956617,3.28140853 78.3655931,2.55250659 79.0215685,2.19664538 L79.0755608,2.17026256 C79.1401033,2.1365171 79.205887,2.10645297 79.2704295,2.08436503 C79.2859445,2.08068371 79.2977359,2.07332106 79.3126304,2.06902618 C79.3703463,2.04693825 79.423718,2.03221296 79.4814338,2.02116899 C79.4926047,2.01687411 79.5043961,2.01380634 79.5124639,2.01380634 C79.5850742,1.99478617 79.6576846,1.9837422 79.7302949,1.97331179 L92.9726805,0.481148904 C93.3866214,0.43390526 93.8030447,0.522870564 94.1617521,0.729024646 L137.361172,25.9129547 C137.440609,25.9589712 137.521287,26.0086691 137.593897,26.0657296 C137.742221,26.1835319 137.87565,26.3166731 137.982394,26.4688344 C138.16423,26.726527 138.285247,27.0333039 138.321862,27.3627823 C138.32931,27.438863 138.332413,27.5180114 138.332413,27.5934786" id="Fill-4" fill="#2D234C"></path>
                    <path d="M121.320434,110.812114 L38.4056489,110.416986 L37.0483943,27.7694458 L57.4587223,17.403454 L79.9251016,5.99135303 L121.721963,28.3922029 L121.320434,110.812114 Z M124.555627,25.606055 L124.151616,25.388857 L86.196896,5.05261569 L80.8584856,2.19038713 C80.510949,2.00325322 80.1137643,1.92962676 79.7302328,1.97318908 C79.6576225,1.98361949 79.5850122,1.99527702 79.5124018,2.01368363 C79.504334,2.01368363 79.4931632,2.01736495 79.4813718,2.02104628 C79.4236559,2.03209024 79.3702842,2.04681554 79.3131889,2.06951703 C79.2976739,2.07319835 79.2865031,2.080561 79.2703674,2.08424232 C79.2058249,2.10694381 79.1400412,2.13700795 79.0754987,2.17013985 L79.0215064,2.19652267 L60.8974728,11.401057 L34.2420363,24.9415763 C33.5941288,25.2679869 33.1882557,25.9355334 33.2006677,26.654005 L34.6081909,112.328819 C34.6261884,113.357136 35.471447,114.186047 36.5128156,114.190955 L123.21575,114.603877 C124.275116,114.608785 125.132786,113.765149 125.137131,112.721494 L125.553554,27.275535 C125.557278,26.5791514 125.173746,25.9379877 124.555627,25.606055 L124.555627,25.606055 Z" id="Fill-6" fill="#2D234C"></path>
                    <polygon id="Fill-8" fill="#CBC1EC" points="129.120955 25.499358 124.151182 25.3889183 86.1970821 5.05267705 92.7711092 4.31211759"></polygon>
                    <path d="M92.7709231,4.31230165 L129.120769,25.4995421" id="Fill-10" fill="#000000"></path>
                    <path d="M134.435472,41.758841 C133.260674,42.4233198 131.785506,42.8202891 130.194285,42.8018825 C131.326261,43.7455282 132.772261,44.4824064 134.420578,44.8456302 L134.098486,110.874451 L125.145074,110.832116 L125.54288,29.2030756 L134.495671,29.4080026 L134.435472,41.758841 Z" id="Fill-12" fill="#ABA3C7"></path>
                    <path d="M138.253596,43.7463259 C138.117685,44.1162988 137.871306,44.4519128 137.521908,44.6997885 C137.099899,45.0041112 136.597833,45.126822 136.116246,45.0863274 L135.833252,45.0623988 C135.346701,45.0225178 134.876906,44.9482778 134.422005,44.8439736 C132.774309,44.4807498 131.328309,43.7438716 130.196333,42.8002259 C131.787554,42.8186325 133.262722,42.4210496 134.4369,41.7571844 C134.659695,41.6332465 134.866976,41.4982647 135.066189,41.3553066 C135.999573,40.686533 137.30718,40.8896193 137.983635,41.8160855 C138.105273,41.9786773 138.19588,42.1535401 138.260423,42.3314708 C138.430468,42.7934768 138.420538,43.2972045 138.253596,43.7463259" id="Fill-14" fill="#2D234C"></path>
                    <path d="M34.9089963,95.3438091 C34.7401928,94.9873343 34.6744091,94.5774804 34.7439164,94.1584231 C34.8252151,93.6473328 35.0926942,93.2098689 35.4619518,92.9018649 L35.6791622,92.7208665 C36.0515228,92.4097947 36.4369161,92.1336955 36.8334802,91.8888875 C38.2577596,90.9943261 39.8080211,90.5040966 41.2831899,90.3801587 C40.1443869,91.4796471 39.3853918,92.7920388 39.030408,94.0823424 C38.9615213,94.3253097 38.9112526,94.5658228 38.8727753,94.8063359 C38.6915598,95.9315936 37.6216435,96.7022172 36.4803582,96.5206053 C36.2774216,96.4899276 36.0881383,96.4304129 35.9156112,96.3494238 C35.4650548,96.141429 35.1125534,95.7782052 34.9089963,95.3438091" id="Fill-16" fill="#2D234C"></path>
                    <path d="M122.298005,111.957742 C121.937436,112.124629 121.523495,112.189665 121.098383,112.120947 C120.582043,112.041185 120.139554,111.776744 119.828013,111.411066 L119.645556,111.196322 C119.330291,110.828189 119.05102,110.447173 118.8034,110.055112 C117.898564,108.647006 117.402704,107.114348 117.277342,105.655931 C118.389459,106.781802 119.716925,107.532178 121.022049,107.883131 C121.267807,107.951849 121.511083,108.000934 121.754358,108.038974 C122.892541,108.218745 123.672636,109.276512 123.488318,110.404224 C123.457288,110.604856 123.397089,110.79199 123.31517,110.962558 C123.104786,111.407998 122.73739,111.75711 122.298005,111.957742" id="Fill-18" fill="#2D234C"></path>
                    <path d="M92.7485194,89.1423752 C92.3680909,89.1405346 91.9858007,89.0460473 91.6382641,88.8576863 L77.2620403,81.0416242 L62.8299625,88.1968888 C62.4960791,88.3625483 62.1348893,88.4429239 61.7749406,88.4410832 C61.285907,88.4392426 60.800597,88.284627 60.3934827,87.9845992 C59.6884799,87.4643055 59.3390815,86.5948998 59.4923699,85.7371515 L62.3223108,69.9381407 L50.7077618,58.4315524 C50.0784723,57.8081817 49.8637443,56.8853968 50.1541856,56.0534178 C50.4452475,55.2214388 51.1899688,54.6262916 52.0730841,54.5189197 L68.1646492,52.5733406 L75.4231993,38.3395056 C75.8210046,37.5590651 76.6302684,37.0688356 77.5133837,37.0731305 L77.5220722,37.0731305 C78.4082905,37.0804931 79.2138307,37.5848344 79.5998445,38.3738646 L86.744204,52.9868758 L102.860593,55.668106 C103.731296,55.8129047 104.444367,56.4325941 104.701917,57.2676408 C104.959466,58.1026876 104.716811,59.0101337 104.07573,59.6101893 L92.3860883,70.5572165 L95.0577759,86.4623721 C95.2036172,87.3323915 94.8343596,88.2091599 94.1063945,88.7190231 C93.7017626,89.0018714 93.2263822,89.1442159 92.7485194,89.1423752" id="Fill-20" fill="#2D234C"></path>
                    <polygon id="Fill-22" fill="#FFFFFF" points="77.5025853 39.3759207 85.1707321 55.0595834 102.47371 57.9383779 89.8854384 69.7272009 92.7606832 86.8398305 77.3120608 78.4415058 61.7858632 86.139152 64.8268085 69.1596636 52.35583 56.8045304 69.6830118 54.7092441"></polygon>
                    <g id="Group-26" transform="translate(0.000000, 136.822501)">
                        <mask id="mask-2" fill="white">
                            <use xlink:href="#path-1"></use>
                        </mask>
                        <g id="Clip-25"></g>
                        <path d="M6.44736244,22.4154525 L10.002786,22.4068627 C12.3461756,22.4013407 14.2613505,21.5932904 15.7489313,19.9839387 C17.236512,18.374587 17.9775097,16.4234859 17.9719243,14.133703 C17.9657183,11.8426931 17.214791,9.89650037 15.7191424,8.2938978 C14.2241144,6.69129523 12.3045953,5.89306171 9.96120569,5.89858369 L6.40640277,5.90717345 L6.44736244,22.4154525 Z M0.0700658606,28.1975837 L-6.20601068e-05,0.15756062 L9.94693186,0.133018468 C13.9417409,0.123201607 17.3463584,1.48467753 20.1632667,4.21499202 C22.9801749,6.94653362 24.3932835,10.2474532 24.4038338,14.1177506 C24.4125222,17.9874346 23.0161698,21.2957168 20.2135353,24.040143 C17.4102803,26.7864099 14.0112483,28.1632246 10.0170598,28.1730415 L0.0700658606,28.1975837 Z" id="Fill-24" fill="#D5CDF0" mask="url(#mask-2)"></path>
                    </g>
                    <polygon id="Fill-27" fill="#D5CDF0" points="28.4720599 164.950447 28.4025526 136.910424 34.794123 136.893858 34.8636303 164.934494"></polygon>
                    <path d="M46.5658703,148.20055 L50.1610123,148.191347 C51.0130975,148.188893 51.7181003,147.925065 52.2760207,147.396181 C52.8345617,146.868525 53.1125909,146.209568 53.1101085,145.419924 C53.1082467,144.629667 52.8271144,143.965802 52.2667117,143.427715 C51.7056883,142.889015 50.9994443,142.620892 50.147359,142.622732 L46.552217,142.631936 L46.5658703,148.20055 Z M55.4752192,164.884306 L46.6589604,153.531106 L46.5789029,153.531719 L46.6074505,164.906394 L40.2158801,164.921732 L40.1457522,136.881709 L50.8517412,136.855327 C53.1690656,136.849191 55.1537478,137.660923 56.8095115,139.289295 C58.4646545,140.917666 59.2956394,142.876744 59.3012248,145.168367 C59.305569,146.905338 58.8097087,148.485853 57.8148852,149.909911 C56.8200617,151.334583 55.4981814,152.36474 53.8480032,153.000382 L63.1048887,164.865899 L55.4752192,164.884306 Z" id="Fill-29" fill="#D5CDF0"></path>
                    <polygon id="Fill-31" fill="#D5CDF0" points="68.6984282 164.851603 68.6438153 143.051422 61.8531984 143.067988 61.8376834 136.828146 81.8508267 136.779062 81.8663417 143.018904 75.0360063 143.03547 75.0899986 164.836264"></polygon>
                    <polygon id="Fill-33" fill="#ABA3C7" points="118.511966 165.045732 100.579077 150.121649 100.615072 164.773927 94.2228813 164.789266 94.1527534 136.432649 112.086262 151.357346 112.050268 136.705681 118.441838 136.689728"></polygon>
                    <path d="M132.06881,155.218072 L137.421494,155.205187 L134.729947,149.366609 L132.06881,155.218072 Z M120.787524,164.723861 L134.697676,136.334113 L148.750567,164.655757 L142.038766,164.671709 L139.990783,160.332657 L129.524346,160.358426 L127.498083,164.707909 L120.787524,164.723861 Z" id="Fill-35" fill="#ABA3C7"></path>
                    <g id="Group-39" transform="translate(150.806060, 136.208948)">
                        <mask id="mask-4" fill="white">
                            <use xlink:href="#path-3"></use>
                        </mask>
                        <g id="Clip-38"></g>
                        <path d="M6.57526832,13.5368379 L9.45113367,13.5294752 C10.4627134,13.527021 11.3147987,13.1637972 12.0049071,12.437963 C12.6950155,11.7115153 13.0400696,10.8617432 13.0375872,9.88803333 C13.0351048,8.91370987 12.686327,8.07130047 11.992495,7.36264581 C11.2974218,6.65276405 10.444716,6.2999706 9.43313624,6.30242482 L6.55727089,6.30978746 L6.57526832,13.5368379 Z M0.220313379,28.4412872 L0.150185459,0.401264197 L9.49829935,0.377949152 C12.2413561,0.37120006 14.546889,1.28784946 16.4155189,3.1260567 C18.2841487,4.96426394 19.2218769,7.21293868 19.2293241,9.87208093 C19.2349095,12.5318367 18.3083521,14.7854199 16.4496519,16.6328304 C14.5903311,18.4808545 12.2885218,19.4067073 9.54608563,19.4134564 L6.59016275,19.4214326 L6.61250438,28.4259484 L0.220313379,28.4412872 Z" id="Fill-37" fill="#ABA3C7" mask="url(#mask-4)"></path>
                    </g>
                </g>
            </g>
        </g>
    </g>
</svg>